# xmcd CD database file
# Copyright (C) 1993-1998 Ti Kan
#
# Track frame offsets:
#	180
#	35527
#	73627
#
# Disc length: 4245 seconds
#
# Revision: 1
# Processed by: cddbd v1.4b41PL1 Copyright (c) Steve Scherf et al.
# Submitted via: CDValet v3.01 - Copyright (c) 1997 Greg Leichner
#
DISCID=22109303
DTITLE=Stevie Ray Vaughan - Jammin' With The Boys
DYEAR=1900
DGENRE=
TTITLE0=Cleo's Thing
TTITLE1=Hide Away (Freddie King Tribute)
TTITLE2=Jam (Previously unreleased featuring Albert Collins and Joe Ely)
EXTD=
EXTT0=
EXTT1=
EXTT2=
PLAYORDER=
